<svg xmlns="http://www.w3.org/2000/svg" xmlns:xlink="http://www.w3.org/1999/xlink" viewBox="78.99 70.22 543.53 303.9"><path fill="#FDFDFE" d="M321.827 126.746L326.474 123.561C332.45 135.009 342.418 146.395 352.82 153.986L352.839 154.712C347.626 159.386 339.258 161.598 332.332 161.141C328.921 160.916 325.468 160.701 323.861 157.367C316.795 144.136 325.807 137.383 321.827 126.746Z"></path><path fill="#FDFDFE" d="M327.778 122.845L332.957 119.713C339.664 129.301 351.562 127.819 362.258 135.114C362.994 135.926 363.075 135.755 363.104 136.962C363.195 140.709 357.353 152.696 353.714 153.702L353.174 153.525C352.052 151.994 345.569 146.188 343.776 144.292C337.232 137.373 332.635 130.965 327.778 122.845Z"></path><path fill="#FDFDFE" d="M334.331 119.04C343.488 114.243 346.788 113.979 356.74 113.955C359.984 117.655 366.024 130.419 362.912 134.686C353.283 126.313 343.17 129.243 334.331 119.04Z"></path><path fill="#FDFDFE" d="M307.642 142.057C311.719 136.537 314.745 131.865 320.591 127.763C323.428 139.88 315.313 144.202 323.216 158.216L322.929 158.63C318.55 158.801 307.94 146.789 307.642 142.057Z"></path><path fill="#FDFDFE" d="M336.68 103.607C343.951 103.826 351.301 107.787 356.124 113.121C355.186 113.551 348.62 112.704 346.399 113.114C341.406 114.037 338.081 115.445 333.559 117.568C331.7 111.284 332.58 108.558 336.68 103.607Z"></path><path fill="#FDFDFE" d="M308.122 120.502L311.152 120.609C315.123 121.763 317.479 122.82 319.879 126.472C312.765 131.851 311.698 134.763 307.27 141.667C304.459 134.546 305.651 127.416 308.122 120.502Z"></path><path fill="#FDFDFE" d="M319.205 107.766L320.118 107.376L321.838 111.448L321.189 112.587C322.462 115.643 324.123 119.386 325.835 122.237C324.056 123.359 322.736 124.137 321.152 125.557C318.757 122.271 317.343 121.298 313.498 119.886L311.401 120.142L311.152 120.609L308.122 120.502L308.719 119.225C312.316 113.523 313.802 111.79 319.205 107.766Z"></path><path fill="#FDFDFE" d="M320.118 107.376C324.82 104.439 330.001 103.545 335.441 103.557C331.006 109.298 330.028 111.365 332.079 118.473C329.966 119.591 328.883 120.144 326.963 121.621C325.233 118.271 323.418 114.862 321.838 111.448L320.118 107.376Z"></path><path fill="#FDFDFE" d="M356.136 204.017C359.408 191.906 368.349 180.487 379.54 174.732C383.164 172.868 385.754 173.119 389.421 174.441L390.82 175.373C395.484 177.821 399.726 182.134 402.209 186.774C402.318 186.973 402.714 187.737 402.824 187.865C403.817 190.511 404.255 191.846 404.868 194.596C398.733 210.658 388.159 219.484 371.439 222.763C372.227 220.96 372.812 219.723 372.809 217.721L372.658 216.787C370.377 209.925 364 202.845 356.136 204.017Z"></path><path fill="#FDFDFE" d="M402.209 186.774C402.318 186.973 402.714 187.737 402.824 187.865C403.817 190.511 404.255 191.846 404.868 194.596C398.733 210.658 388.159 219.484 371.439 222.763C372.227 220.96 372.812 219.723 372.809 217.721L372.658 216.787C387.357 210.207 394.599 200.481 402.209 186.774Z"></path><path fill="#FDFDFE" d="M334.5 193.594C335.316 191.512 342.013 183.48 343.695 181.229C356.459 164.168 369.531 147.446 384.292 132.04C386.598 129.634 390.691 124.733 393.418 123.31C396.283 121.816 402.711 129.87 403.739 132.023C400.811 136.386 395.448 141.986 391.919 146.006C378.929 160.805 364.533 174.018 350.078 187.346C348.568 188.738 339.981 196.867 339.028 197.38C337.4 196.429 335.896 194.896 334.5 193.594Z"></path><path fill="#FDFDFE" d="M301.255 187.118L300.445 187.503L299.877 187.22C297.636 182.66 305.331 172.752 311.438 175.011L313.129 175.446C315.925 174.453 322.78 180.486 321.231 184.118L320.545 184.628L321.673 185.845L322.21 185.908C322.26 189.286 320.675 192.032 318.446 194.471C317.051 195.997 313.148 198.182 311.139 197.14L310.049 196.085C306.513 198.631 301.448 193.988 300.491 190.521C300.32 189.902 301.128 189.301 301.553 188.861C301.245 188.404 301.289 187.704 301.255 187.118Z"></path><path fill="#FDFDFE" d="M301.255 187.118L300.445 187.503L299.877 187.22C297.636 182.66 305.331 172.752 311.438 175.011C307.557 180.47 306.032 182.432 301.255 187.118Z"></path><path fill="#FDFDFE" d="M321.673 185.845L322.21 185.908C322.26 189.286 320.675 192.032 318.446 194.471C317.051 195.997 313.148 198.182 311.139 197.14C314.319 192.859 317.31 188.977 321.673 185.845Z"></path><path fill="#FDFDFE" d="M368.611 219.14L368.955 219.21C369.354 220.28 369.182 220.165 368.901 221.323C368.776 221.741 367.938 222.8 367.497 222.84C363.258 223.219 358.059 222.61 356.294 218.085C355.439 215.895 354.828 209.751 355.72 207.606C356.78 207.087 357.668 207.284 358.875 207.369L359.788 207.716C362.876 208.915 369.913 214.284 368.324 218.074C367.422 218.609 366.982 218.589 365.951 218.723L368.611 219.14Z"></path><path fill="#FDFDFE" d="M368.611 219.14L368.955 219.21C369.354 220.28 369.182 220.165 368.901 221.323C368.776 221.741 367.938 222.8 367.497 222.84C363.258 223.219 358.059 222.61 356.294 218.085C355.439 215.895 354.828 209.751 355.72 207.606C356.78 207.087 357.668 207.284 358.875 207.369L359.788 207.716C359.05 210.535 358.61 212.359 358.194 215.231C358.137 216.478 357.912 217.788 358.459 218.837C359.44 219.506 360.504 219.269 361.762 219.203L365.951 218.723L368.611 219.14Z"></path><path fill="#FDFDFE" d="M334.5 193.594C335.896 194.896 337.4 196.429 339.028 197.38L339.104 197.896L338.399 198.428C335.84 200.081 321.562 213.752 320.127 217.157C319.908 217.675 320.017 217.684 319.336 218.478C317.333 219.117 316.201 218.361 315.195 216.595C315.156 215.855 315.016 215.392 315.652 214.778C316.706 213.758 318.306 213.067 319.299 211.921C324.274 206.185 328.868 200.086 333.685 194.229L334.5 193.594Z"></path><path fill="#FDFDFE" d="M388.424 171.432C393.66 170.564 399.138 169.999 404.122 172.196C408.996 174.18 407.376 185.041 406.502 189.161C405.144 185.298 403.97 183.963 404.828 180.169C404.51 180.925 404.165 181.71 403.872 182.473C401.019 179.047 399.198 176.814 395.427 174.387L394.361 173.533C392.36 172.752 390.456 172.112 388.424 171.432Z"></path><path fill="#FDFDFE" d="M388.424 171.432C393.66 170.564 399.138 169.999 404.122 172.196L402.392 172.473C400.518 172.886 396.953 173.53 395.427 174.387L394.361 173.533C392.36 172.752 390.456 172.112 388.424 171.432Z"></path><path fill="#FDFDFE" d="M446.564 145.952C448.301 145.593 450.209 145.24 451.919 144.833C452.299 149.837 453.487 156.77 457.799 159.6C470.706 168.072 477.896 155.732 478.586 144.824C480.106 145.217 481.648 145.637 483.183 145.947L484.753 146.021C484.814 146.096 485.432 146.853 485.432 146.853C485.703 160.018 483.744 171.788 492.8 182.659L492.821 220.637C474.584 220.481 455.784 220.412 437.559 220.613L437.553 185.64C442.61 178.469 445.038 171.114 444.997 162.249C444.982 160.841 445.121 159.426 445.113 157.859C445.097 154.701 444.469 149.631 444.718 146.686C445.464 145.985 445.377 146.193 446.564 145.952Z"></path><path fill="#B9BAB9" d="M444.997 162.249C444.982 160.841 445.121 159.426 445.113 157.859C445.097 154.701 444.469 149.631 444.718 146.686C445.464 145.985 445.377 146.193 446.564 145.952C446.701 159.413 451.592 174.155 442.351 185.195C442.147 195.756 442.471 206.323 442.272 216.695C450.232 216.876 458.243 217.243 466.192 217.358L469.821 218.02C460.264 218.443 450.128 218.37 440.537 218.415L440.534 184.631C446.008 178.867 446.888 170.822 446.554 163.194C446.523 162.486 446.432 162.428 445.938 162.075L444.997 162.249Z"></path><path fill="#B9BAB9" d="M483.183 145.947L484.753 146.021C484.605 146.351 484.332 147.196 484.333 147.542C484.388 161.731 480.729 172.566 489.898 184.844C490.518 193.591 489.877 205.535 489.969 214.684C489.151 213.182 488.542 188.615 488.411 185.418C478.833 173.555 483.86 159.708 483.183 145.947Z"></path><path fill="#B9BAB9" d="M466.192 217.358C468.887 217.285 472.407 217.048 474.954 217.822L474.71 217.724L474.5 218.133L474.42 217.641L474.123 218.142L474.11 217.573L473.761 218.143C472.914 218.126 470.533 218.133 469.821 218.02L466.192 217.358Z"></path><path fill="#FDFDFE" d="M455.203 145.479C463.091 148.928 467.477 149.099 475.303 145.367C475.032 149.247 474.498 151.606 472.779 155.058C469.445 159.39 464.704 161.706 459.952 157.633C456.298 154.502 455.502 150.037 455.203 145.479Z"></path><path fill="#FDFDFE" d="M207.443 192.415C207.641 184.121 212.698 175.726 219.629 171.344C226.421 167.05 233.032 166.019 240.951 165.903C242.375 165.715 243.442 164.494 244.913 164.862C246.313 165.212 246.135 167.007 246.937 168.61L247.627 168.052L248.335 168.341L248.712 167.502C265.211 172.584 272.399 186.274 267.896 202.796C267.594 203.903 266.78 205.451 265.656 205.893C260.27 207.867 250.697 205.895 245.201 205.001C237.934 209.479 233.482 211.442 224.565 209.526C216.87 207.873 211.611 203.317 204.771 200.627C204.766 201.026 204.788 201.747 204.706 202.103C203.019 203.052 199.362 205.993 197.818 207.34C190.121 214.052 184.381 203.707 191.757 199.376C192.392 199.192 192.885 199.083 193.532 198.95L193.822 198.164C197.479 195.976 202.995 194.615 207.099 193.703L207.443 192.415Z"></path><path fill="#FDFDFE" d="M191.757 199.376C192.392 199.192 192.885 199.083 193.532 198.95L193.822 198.164C197.173 198.46 201.721 199.168 204.771 200.627C204.766 201.026 204.788 201.747 204.706 202.103C203.019 203.052 199.362 205.993 197.818 207.34C190.121 214.052 184.381 203.707 191.757 199.376Z"></path><path fill="#B9BAB9" d="M191.757 199.376C192.392 199.192 192.885 199.083 193.532 198.95L193.822 198.164C197.173 198.46 201.721 199.168 204.771 200.627C204.766 201.026 204.788 201.747 204.706 202.103C201.395 200.384 195.553 199.853 191.757 199.376Z"></path><path fill="#B9BAB9" d="M246.937 168.61L247.627 168.052L248.335 168.341L248.712 167.502C253.113 180.381 252.899 188.086 247.552 200.752L246.699 200.823C250.889 190.9 251.602 178.462 246.937 168.61Z"></path><path fill="#B9BAB9" d="M207.443 192.415C217.454 191.882 235.851 195.901 242.826 203.548C230.633 196.58 221.001 194.301 207.099 193.703L207.443 192.415Z"></path><path fill="#B9BAB9" d="M246.699 200.823L247.552 200.752C247.076 201.836 246.913 202.374 246.039 203.214C245.889 202.272 246.279 201.835 246.699 200.823Z"></path><path fill="#B9BAB9" d="M255.992 172.544C256.065 172.574 256.139 172.604 256.212 172.634C266.632 178.664 269.775 195.129 265.646 204.931L264.659 204.852C264.157 203.652 265.824 196.841 265.778 194.686C265.569 184.928 262.297 179.344 255.992 172.544Z"></path><path fill="#B9BAB9" d="M233.339 167.971C233.218 168.444 231.596 168.779 231.047 168.967C223.974 171.381 217.84 175.76 214.151 182.353C212.896 184.595 211.026 190.2 209.555 191.498C208.495 188.677 212.957 181.321 214.749 178.919C219.412 172.664 225.628 169.067 233.339 167.971Z"></path><path fill="#1C1C1C" d="M598.456 236.293C605.861 236.443 613.3 236.147 620.634 236.376C620.806 238.294 620.822 240.211 620.755 242.134C620.379 252.841 620.474 263.551 620.472 274.263L620.481 318.582C620.489 326.251 620.726 334.806 620.449 342.399C615.407 342.746 601.522 342.493 596.529 341.945C594.042 338.29 589.661 328.621 587.53 324.382C583.606 316.574 579.761 308.512 575.779 300.722C573.666 296.587 571.721 291.91 569.426 287.945C570.31 296.985 569.375 310.693 569.749 320.176C569.872 323.301 569.916 340.126 569.524 342.527C563.442 342.209 550.337 342.129 544.422 342.322C544.017 336.672 544.394 324.57 544.394 318.514L544.358 271.167C544.368 264.077 544.712 255.426 544.139 248.411C543.966 246.286 540.105 238.832 539.005 236.604C547.891 236.197 558.643 236.397 567.663 236.329C569.74 238.704 574.287 248.983 576.148 252.528C582.613 264.839 588.577 278.388 595.071 290.595C594.798 277.865 594.871 265.013 594.818 252.28C594.806 249.466 594.427 238.971 594.912 236.934C595.873 236.25 597.202 236.357 598.456 236.293Z"></path><path fill="#1C1C1C" d="M136.914 234.262L140.628 234.317L158.613 307.856C161.595 320.015 164.307 332.314 167.531 344.43C160.851 344.678 145.692 345.07 139.652 344.117C139.086 337.871 137.011 328.424 135.908 321.801C130.676 322.023 115.479 322.219 110.635 321.78C110.149 323.431 109.931 324.879 109.652 326.562C108.455 332.356 106.961 338.625 106.227 344.444C98.115 344.915 87.1377 344.706 78.9939 344.496C81.5487 332.052 85.2317 318.13 88.2703 305.655L102.776 246.32C100.887 242.816 98.8912 238.106 97.2084 234.415C110.302 234.157 123.796 234.288 136.914 234.262ZM114.606 298.359L122.961 298.314L131.362 298.35C130.377 295.197 129.588 290.36 128.946 287.017L125.313 267.47C124.971 265.56 124.058 258.213 122.852 257.512C121.763 264.795 119.955 272.906 118.519 280.177C117.659 284.537 116.093 294.468 114.606 298.359Z"></path><path fill="#1C1C1C" d="M225.25 249.334C230.666 249.165 239.308 249.086 244.575 249.385C244.645 250.526 244.654 251.64 244.664 252.783C244.889 278.41 244.341 304.113 244.833 329.731C238.264 329.766 231.79 329.757 225.222 329.666C225.306 315.022 224.737 297.072 225.434 282.772C222.922 287.731 219.855 293.044 217.159 297.961C216.951 298.319 216.303 299.371 216.185 299.691C213.49 303.878 210.747 309.57 207.819 314.259C202.251 306.387 195.585 291.693 190.219 282.994C190.895 297.704 190.835 314.9 190.721 329.766C184.228 329.792 177.665 329.613 171.218 329.677C171.416 313.89 171.182 297.994 171.25 282.168C171.281 274.766 171.553 266.173 170.988 258.863C170.856 257.162 168.002 251.445 167.108 249.422C174.26 249.315 184.056 249.018 191.051 249.414C191.484 250.624 192.099 251.718 192.714 252.843C197.823 262.189 203.033 271.486 207.844 280.991C210.258 275.598 221.936 253.082 225.25 249.334Z"></path><path fill="#1C1C1C" d="M312.137 249.416L340.025 249.279C349.869 249.264 370.168 246.692 370.543 262.075C370.805 272.822 371.286 284.685 369.987 295.253C369.608 298.33 365.532 301.874 362.919 303.262C365.852 311.99 369.447 320.59 372.04 329.559C366.569 329.749 360.393 329.844 354.95 329.64C353.723 329.504 353.412 329.484 352.212 329.013C350.933 327.576 344.628 307.861 343.647 304.842C340.889 304.948 338.408 304.961 335.648 304.928C335.783 313.364 335.623 321.387 335.931 329.891C331.061 329.462 321.557 329.723 316.17 329.631C316.602 311.67 316.052 293.577 316.285 275.6C316.355 270.213 316.515 264.328 315.99 259.014C315.764 256.729 313.202 251.714 312.137 249.416ZM335.693 266.816C335.692 273.418 335.861 280.837 335.679 287.363L345.044 287.409C346.916 287.391 349.47 287.44 351.281 287.246C351.51 282.586 351.663 271.481 351.343 266.825C348.258 266.725 345.366 266.627 342.282 266.707C340.015 266.806 337.966 266.92 335.693 266.816Z"></path><path fill="#1C1C1C" d="M503.41 249.3L517.904 249.228C518.45 252.223 519.174 255.127 519.877 258.087C525.514 281.819 531.812 305.468 537.06 329.282C531.312 329.892 522.959 329.843 517.069 329.621C515.974 325.429 514.878 317.26 514.18 312.849L505.507 312.896C502.657 312.768 498.668 312.947 495.735 312.99C495.471 316.058 493.345 326.661 492.583 329.703C486.098 329.799 479.176 329.852 472.725 329.464C473.412 326.004 474.441 322.453 475.233 318.999C479.894 298.674 485.731 278.296 490.006 257.912C488.699 255.39 487.302 252.072 486.107 249.436C491.845 249.319 497.664 249.332 503.41 249.3ZM499.078 296.025C503.019 295.49 506.824 295.783 510.802 295.929C509.175 288.698 507.979 281.327 506.568 274.047C506.377 273.066 506.054 271.686 505.981 270.712C505.826 269.513 505.578 268.04 504.778 267.132C504.026 267.753 504.191 268.023 503.963 269.173C503.406 276.556 500.496 288.671 499.078 296.025Z"></path><path fill="#1C1C1C" fill-opacity="0.06666667" d="M503.963 269.173C504.191 268.023 504.026 267.753 504.778 267.132C505.578 268.04 505.826 269.513 505.981 270.712C505.286 269.821 505.093 269.429 503.963 269.173Z"></path><path fill="#1C1C1C" d="M428.69 248.592L438.207 248.535C466.426 248.452 468.372 250.082 467.759 279.824C461.077 279.671 454.938 280.009 448.111 279.581C448.225 277.355 448.634 268.069 447.727 266.584C445.442 265.652 433.793 265.149 432.615 267.08C432.696 272.072 432.343 310.223 433.104 312.204C434.456 313.259 445.742 312.559 448.077 312.438C448.266 309.702 448.047 299.39 448.552 297.602L451.087 297.474L467.585 297.385C467.727 299.211 467.677 301.314 467.729 302.974C468.445 325.715 465.593 330.833 442.302 329.868C424.453 329.128 412.128 334.029 412.359 307.99C412.636 292.954 411.683 277.673 412.838 262.685C413.643 252.243 419.684 249.812 428.69 248.592Z"></path><path fill="#1C1C1C" d="M351.369 70.2243C362.151 70.2047 370.839 70.6262 381.483 71.9119C465.747 82.0899 538.476 141.441 568.833 220.194C569.608 222.206 572.269 227.983 572.025 229.942L571.608 230.156C571.697 230.236 560.319 205.13 558.842 202.351C519.082 127.582 440.255 79.1156 354.864 78.8386C259.677 78.5083 174.838 134.625 137.891 222.146C137.016 224.218 135.818 228.529 134.413 230.063L133.983 229.917C133.97 229.741 133.956 229.564 133.943 229.388C145.019 196.524 164.945 164.715 188.909 140.126C232.171 95.7364 289.503 70.7884 351.369 70.2243Z"></path><path fill="#1C1C1C" d="M253.443 249.457C271.417 249.113 290.837 249.12 308.82 249.415L304.667 257.173C303.724 258.776 300.47 264.126 299.984 265.549C298.342 267.329 279.762 266.917 276.832 266.566L276.817 280.136C285.218 280.154 294.867 280.378 303.157 280.073C299.931 285.53 297.179 291.498 293.8 296.826C288.692 297.061 282.063 296.897 276.859 296.929C276.748 301.987 276.823 307.23 276.774 312.319C286.991 312.089 298.629 312.291 308.891 312.357C305.546 317.903 302.779 323.892 299.427 329.369C298.191 329.566 296.583 329.686 295.314 329.682C282.609 329.645 269.815 329.956 257.12 329.678C257.966 315.816 257.355 296.166 257.348 281.939L257.41 267.249C257.488 257.471 257.773 258.098 253.443 249.457Z"></path><path fill="#1C1C1C" d="M390.857 249.299C394.441 249.245 398.03 249.263 401.615 249.268C401.844 253.603 401.654 259.311 401.651 263.756L401.64 291.047L401.649 316.005C401.668 320.484 401.911 325.334 401.677 329.759L388.879 329.761L382.222 329.737L382.264 281.853C382.27 274.516 382.624 265.92 381.935 258.689C381.764 256.886 379.028 251.406 378.095 249.426L390.857 249.299Z"></path><path fill="#1C1C1C" d="M411.648 345.567C415.259 345.474 422.509 344.493 425.154 347.321C426.703 348.976 426.755 351.989 426.694 354.144C426.54 359.559 426.775 364.975 426.565 370.402C425.424 371.945 424.464 372.882 422.72 373.645C419.907 373.86 414.886 373.97 412.135 373.548C409.695 373.174 408.854 372.104 407.587 370.189C407.313 364.903 406.851 353.52 408.188 348.517C408.611 346.93 410.24 346.18 411.648 345.567ZM414.556 367.346L419.477 367.38C419.484 362.268 419.42 356.95 419.538 351.856L414.558 351.974C414.603 356.945 414.715 362.387 414.556 367.346Z"></path><path fill="#1C1C1C" d="M283.628 345.569C300.299 345.16 298.728 345.608 298.742 362.783C298.746 367.64 299.822 371.163 294.926 373.592C291.856 373.939 287.039 373.661 283.645 373.737C282.845 373.34 280.579 372.126 280.309 371.069C278.864 365.392 279.157 354.61 280.044 348.704C280.266 347.226 282.597 346.076 283.628 345.569ZM286.528 367.338L291.558 367.375C291.519 362.385 291.375 356.811 291.57 351.873L286.618 351.909C286.765 355.702 286.907 363.688 286.528 367.338Z"></path><path fill="#1C1C1C" d="M305.599 345.977C318.036 346.006 327.196 341.805 325.78 357.726C325.433 361.626 325.901 361.92 322.981 364.873C324.073 367.786 325.039 370.49 326.002 373.446C323.161 373.649 321.837 373.684 319.006 373.464C317.491 370.985 317.678 367.868 315.843 365.73C314.764 365.219 315.23 365.275 314.089 365.49C313.647 366.209 313.694 371.977 313.529 373.703C311.119 373.726 308.785 373.644 306.377 373.564C306.111 365.259 307.521 353.747 305.599 345.977ZM313.904 359.061C315.231 359.085 317.054 359.173 318.323 359.026L318.632 351.921L313.58 351.951C313.714 354.337 313.841 356.672 313.904 359.061Z"></path><path fill="#1C1C1C" d="M433.442 345.944C447.254 346.63 455.237 340.876 453.683 359.035C453.417 362.144 453.084 362.673 450.938 364.866C451.998 367.636 453.259 370.849 453.934 373.696C451.813 373.576 449.615 373.639 447.485 373.662C445.498 371.81 445.185 365.133 442.543 365.002C440.315 366.899 442.358 371.086 440.703 373.212C439.579 373.979 435.913 373.623 434.325 373.579C434.375 366.627 435.139 351.86 433.442 345.944ZM441.808 359.167L446.322 359.118L446.447 351.92L441.309 351.992C441.46 354.317 441.578 356.871 441.808 359.167Z"></path><path fill="#1C1C1C" d="M252.801 346.03C255.775 345.89 268.341 344.953 270.658 346.715C273.157 349.357 273.133 355.047 273.021 358.171C272.764 365.314 268.246 365.452 262.582 365.133C262.173 365.123 261.72 365.195 261.306 365.241C260.14 366.539 260.687 371.666 260.698 373.854C257.988 373.755 255.957 373.67 253.234 373.775C253.587 366.453 253.928 352.961 252.801 346.03ZM265.447 359.149L265.645 351.901L260.518 351.973C260.496 357.349 259.455 359.27 265.447 359.149Z"></path><path fill="#1C1C1C" d="M231.152 345.568C236.856 345.397 241.422 344.339 245.523 348.187C245.847 350.371 245.89 352.584 245.983 354.791C244.055 354.802 240.543 355.13 239.168 353.923C238.749 351.293 235.237 351.176 233.927 352.058C232.387 357.421 239.931 356.303 244.245 358.6L246.117 361.589C246.177 366.493 247.53 371.539 242.108 373.567C238.361 373.668 231.245 374.807 228.475 372.093C226.503 370.161 226.837 367.064 226.918 364.498C230.728 364.141 232.112 363.435 234.491 366.651C235.271 367.705 237.897 367.428 239.267 367.42L239.278 363.006C235.676 362.4 228.75 361.707 227.477 357.904C225.904 353.206 226.085 347.64 231.152 345.568Z"></path><path fill="#1C1C1C" d="M361.435 345.613C364.469 345.454 369.97 345.459 372.897 345.728C376.513 349.07 376.009 350.078 375.891 354.729C374.959 354.746 371.77 354.852 371.092 354.644C368.739 353.921 368.417 350.092 364.493 352.138C363.504 353.26 363.741 352.735 363.482 354.114C364.72 356.971 371.01 357.15 373.631 358.211C376.153 359.232 376.152 363.603 376.155 365.835C376.16 369.559 376.478 372.172 372.332 373.465C366.675 373.805 362.286 374.78 357.711 371.644C357.161 368.576 357.189 367.472 357.18 364.338C359.071 364.274 362.654 363.688 363.577 365.651C364.64 367.913 367.019 367.425 369.252 367.413L369.336 363.035C365.02 362.308 360.917 361.854 357.646 358.889C356.565 353.727 355.778 347.888 361.435 345.613Z"></path><path fill="#1C1C1C" d="M460.271 345.963C461.66 346.065 464.325 345.875 465.861 345.862L479.143 345.813L475.801 351.862L468.258 351.95L468.306 356.331C470.712 356.169 474.656 356.371 477.175 356.429C476.408 357.743 475.697 359.377 474.845 360.658C472.761 363.796 471.554 362.266 469.143 362.822C468.213 363.893 468.481 363.653 468.211 365.219L468.426 366.691C469.78 367.86 476.767 367.396 478.864 367.38C474.932 376.609 470.628 373.726 461.306 373.615C461.168 365.775 462.207 352.998 460.271 345.963Z"></path><path fill="#1C1C1C" d="M394.94 345.685C397.291 345.543 399.478 344.931 401.259 346.57C401.914 348.012 401.707 350.292 401.684 351.946L395.369 351.959C395.674 355.627 395.992 370.507 395.293 373.494C392.45 373.768 391.253 373.859 388.42 373.647C387.981 372.51 388.33 354.73 388.3 351.853L382.296 351.974L382.478 346.111C386.612 345.809 390.795 345.76 394.94 345.685Z"></path><path fill="#1C1C1C" d="M346.075 345.658L350.709 345.593L350.809 351.872L344.554 351.978C344.719 359.324 344.526 366.475 344.876 373.868L337.397 373.698C337.083 368.427 337.45 357.257 337.654 351.882L331.635 351.9C331.725 350.48 331.687 347.546 332.435 346.487C334.647 345.369 343.078 345.711 346.075 345.658Z"></path><path fill="#1C1C1C" fill-opacity="0.98823529" d="M127.696 366.35C137.552 366.127 208.955 364.896 211.072 365.845C211.495 366.933 211.48 367.093 211.378 368.262C210.169 369.397 207.255 369.066 205.62 369.042C178.867 368.651 151.782 368.134 125.032 368.347C125.711 367.993 126.268 367.667 126.923 367.272L125.343 367.002C126.127 366.113 126.334 367.34 127.696 366.35Z"></path><path fill="#1C1C1C" d="M576.682 368.346C549.848 368.199 522.936 368.892 496.098 368.824C494.361 368.82 492.293 369.669 491.336 368.431C491.248 367.337 491.163 366.972 491.571 365.936C493.245 365.019 507.834 365.638 510.947 365.642L572.983 366.324C575.402 367.203 574.872 367.447 576.682 368.346Z"></path><path fill="#1C1C1C" d="M134.784 350.263L192.378 349.62C195.413 349.616 210.099 348.948 211.601 350.077C212.003 351.826 210.796 353.261 209.089 353.16C202.277 352.755 195.526 352.762 188.705 352.722L131.813 352.391C133.262 351.631 133.554 351.362 134.784 350.263Z"></path><path fill="#1C1C1C" d="M567.725 352.344C544.128 352.88 520.445 352.448 496.839 352.918C494.84 352.958 492.621 353.889 491.382 352.368C491.213 351.185 491.186 351.022 491.57 349.898C493.509 348.841 556.627 350.258 564.968 350.263C565.863 350.954 566.798 351.707 567.725 352.344Z"></path><path d="M131.813 352.391C125.614 352.386 82.3544 352.579 79.3914 351.15C82.2973 350.335 93.0014 350.489 96.5751 350.452L134.784 350.263C133.554 351.362 133.262 351.631 131.813 352.391Z"></path><path d="M564.968 350.263L604.369 350.451C608.59 350.498 618.8 350.381 622.525 351.019C616.997 352.264 610.315 352.096 604.615 352.062C592.481 351.992 579.831 352.815 567.725 352.344C566.798 351.707 565.863 350.954 564.968 350.263Z"></path><path d="M125.032 368.347C120.215 368.55 80.5216 368.183 79.4542 367.112C83.3578 365.852 120.806 366.094 127.696 366.35C126.334 367.34 126.127 366.113 125.343 367.002L126.923 367.272C126.268 367.667 125.711 367.993 125.032 368.347Z"></path><path d="M572.983 366.324C579.404 366.298 616.167 365.737 620.323 366.945C618.233 368.332 581.705 368.452 576.682 368.346C574.872 367.447 575.402 367.203 572.983 366.324Z"></path></svg>