<svg xmlns="http://www.w3.org/2000/svg" xmlns:xlink="http://www.w3.org/1999/xlink" width="1279" height="1157" viewBox="0 0 1279 1157"><path fill="#FEFEFE" d="M355.376 16.5374L754.579 16.5672L875.882 16.5655C897.268 16.567 918.727 16.9891 940.101 16.4958C897.631 50.9901 853.606 83.808 810.464 117.483C800.953 124.201 791.844 131.925 782.635 139.078C770.609 122.963 757.925 107.261 745.541 91.4181C751.542 86.4349 757.713 81.6586 764.041 77.0974C732.156 75.9534 699.938 76.8735 668.022 76.8713L517.059 76.981C523.47 81.413 529.557 86.4574 535.712 91.243C531.7 97.2284 526.847 102.881 522.416 108.576C514.557 118.747 506.633 128.869 498.646 138.94C488.772 132.111 479.412 124.127 469.917 116.74L415.176 74.1799L368.171 37.6798C359.347 30.8259 349.934 24.204 341.708 16.6494L355.376 16.5374Z"></path><path fill="#FEFEFE" d="M564.506 763.001C573.526 770.766 581.738 779.913 590.162 788.34L638.741 837.033C662.299 811.577 687.828 787.287 712.565 762.96C729.714 778.76 745.846 795.991 762.332 812.5C737.071 836.569 712.798 861.824 688.073 886.458C696.978 894.649 705.367 903.585 713.929 912.141L762.348 960.499C745.312 976.207 730.21 994.29 712.732 1009.47C704.336 1003.42 696.006 993.389 688.567 985.939L638.619 935.884C625.174 950.011 611.021 963.58 597.226 977.376C586.474 988.129 575.97 999.454 564.653 1009.58C558.435 1004.62 552.839 998.246 547.213 992.612L515.267 960.591C522.535 951.39 532.166 943.135 540.505 934.801C556.607 918.613 572.804 902.52 589.095 886.524C580.767 877.563 571.771 869.089 563.111 860.444L515.265 812.591C520.377 806.103 527.016 800.262 532.87 794.406C543.342 783.863 553.887 773.395 564.506 763.001Z"></path><path fill="#FEFEFE" d="M564.507 466.998C573.873 475.518 582.645 484.832 591.597 493.789L638.723 541.016C662.374 515.617 687.845 491.353 712.551 466.962C729.704 482.661 745.819 499.968 762.266 516.432C737.234 540.776 712.812 565.808 688.079 590.463C713.393 614.464 737.651 639.826 762.323 664.499C745.511 680.117 729.575 697.057 713.339 713.294L712.233 713.36C703.403 705.325 695.148 696.415 686.707 687.963L638.616 639.904C614.807 665.24 589.247 689.329 564.617 713.89L515.233 664.527C522.66 655.369 532.137 647.152 540.508 638.79L589.081 590.515C581.124 581.921 572.481 573.799 564.197 565.51L515.212 516.55C520.811 509.955 527.36 503.937 533.481 497.812C543.755 487.473 554.098 477.201 564.507 466.998Z"></path><path fill="#FEFEFE" d="M712.706 170.444C729.908 186.041 745.539 203.686 762.321 219.795C737.64 244.47 713.334 269.718 688.059 293.774C712.745 318.469 737.091 343.653 762.301 367.806L713.063 417.077C710.468 416.467 645.849 350.569 638.574 343.282C630.652 352.129 621.692 360.366 613.287 368.775L564.635 417.433L515.243 367.981C539.07 342.639 564.516 318.504 589.179 293.949L515.192 219.939C531.28 203.108 548.103 186.899 564.596 170.46C573.297 178.175 581.368 187.066 589.606 195.306L638.771 244.498C662.662 219.222 688.004 194.939 712.706 170.444Z"></path><path fill="#FEFEFE" d="M1118.81 270.003C1131.9 298.057 1142.98 327.445 1154.9 356.038L1224.28 522.385L1261.6 611.861C1266.26 623.026 1275.41 641.856 1278.25 652.503L1278.19 654.316C1275.53 659.018 1263.93 668.953 1259.67 673.157L1215.18 717.158L1003.67 926.442C986.371 918.596 969.03 910.852 951.644 903.211L951.725 968.658C936.468 974.137 920.63 978.498 905.14 983.305L824.334 1008.27L824.301 950.416C846.76 942.923 868.919 934.273 891.259 926.397C890.821 909.589 891.106 892.728 891.146 875.913C879.254 871.177 867.582 865.404 855.892 860.156L786.288 828.9C794.021 810.336 802.671 792.08 810.932 773.742L891.169 809.744C890.564 761.995 891.056 714.165 891.123 666.408C902.834 654.076 915.476 642.441 927.592 630.482C948.322 610.021 968.943 589.316 990.116 569.319C981.311 545.831 971.105 522.613 961.378 499.48L808.685 638.621C794.488 624.55 781.366 608.905 767.838 594.156C777.495 584.503 787.958 575.493 798.054 566.297L851.978 517.197C896.106 477.015 939.824 436.27 984.452 396.653L1060.11 580.11L951.612 688.67C952.034 705.457 951.653 722.361 951.654 739.16L951.69 836.929L990.703 854.401C1009.93 833.732 1030.93 814.169 1051.01 794.303L1158.17 688.189C1165.73 680.719 1205.04 643.557 1206.69 639.552C1206.78 638.609 1206.7 637.801 1206.39 636.902C1202.58 625.741 1197.29 614.659 1192.78 603.741L1164.9 536.171L1072.7 312.645C1087.25 297.816 1103.39 283.942 1118.81 270.003Z"></path><path fill="#FEFEFE" d="M160.047 269.954L206.277 312.597C197.183 335.81 187.359 358.781 177.848 381.828L126.704 505.745L91.1686 591.885C84.6175 607.768 78.451 624.005 71.2378 639.591C82.8947 650.27 93.9085 661.788 105.139 672.925L164.296 731.483L243.215 809.612C258.265 824.495 273.675 839.148 288.351 854.394L327.389 836.873C327.049 807.713 327.283 778.533 327.29 749.37C327.294 729.291 326.885 709.128 327.365 689.06C291.817 652.207 255.007 616.455 218.897 580.144C243.994 519.009 268.521 457.497 294.484 396.73C367.794 461.256 438.174 529.195 511.268 593.974L470.478 638.663C452.342 622.934 434.83 606.335 417.086 590.159L317.508 499.428C308.12 522.736 299.016 546.477 288.663 569.358C299.999 579.616 310.697 590.689 321.601 601.412L387.879 666.432C388.13 714.065 388.852 762.156 387.894 809.745L468.019 773.718C476.273 792.042 484.949 810.289 492.74 828.809C473.347 837.677 453.906 846.439 434.417 855.095C418.924 862.043 403.5 869.307 387.859 875.911C387.973 892.747 387.989 909.584 387.905 926.42C410.135 934.43 432.692 942.007 454.704 950.575L454.711 1008.49C412.621 994.484 369.887 982.032 327.521 968.856C326.762 947.048 327.268 925.098 327.281 903.273C309.891 910.923 292.544 918.671 275.241 926.517L92.348 745.317L28.4181 682.202C18.9566 672.807 9.17691 663.589 0 653.923L0 653.245C14.262 620.598 27.542 587.45 41.251 554.565L117.178 372.541L145.16 305.413C150.079 293.613 154.725 281.573 160.047 269.954Z"></path><path fill="#FEFEFE" d="M1078.01 0L1078.71 0C1093.53 7.4647 1109.79 13.2878 1125.12 19.7268L1218.7 59.095C1228.14 63.1083 1250.34 70.8164 1257.47 75.6464C1257.17 76.6357 1256.87 77.062 1256.13 77.791C1243.07 90.6221 1228.99 102.713 1215.49 115.095L1134.78 189.079L935.143 372.092C899.915 404.389 864.337 436.381 829.489 469.08C816.022 454.123 802.081 439.592 788.752 424.51C792.862 419.801 797.977 415.622 802.586 411.406L826.345 389.673L904.449 318.053L1147.87 94.9777C1128.69 85.513 1107.36 77.8219 1087.59 69.3566C1056.36 93.1393 1025.97 118.289 995.245 142.73L829.388 274.747C815.084 258.658 801.943 240.828 788.614 223.889C806.471 209.311 825.03 195.492 843.264 181.378L943.09 104.124L1028.03 38.4005C1044.62 25.5485 1060.99 12.2596 1078.01 0Z"></path><path fill="#FEFEFE" d="M200.585 0L201.251 0C221.419 14.8372 240.993 30.711 260.798 46.0397L378.127 136.852L451.91 193.95C464.674 203.823 478.375 213.292 490.403 224.014C484.854 231.672 478.545 238.958 472.633 246.348C465.055 255.82 457.652 265.537 449.678 274.679C433.075 261.924 416.846 248.593 400.462 235.553L306.01 160.385L232.678 102.062C219.037 91.2157 205.1 80.5918 191.792 69.3438C171.814 78.2897 151.322 86.3908 131.136 94.8772L490.616 424.493C476.409 438.622 463.128 454.242 449.654 469.094L156.218 200.009L66.766 118.006C51.5815 104.087 35.0787 90.5731 20.9981 75.5873C80.7639 50.1965 141.039 25.8891 200.585 0Z"></path><path fill="#FEFEFE" d="M764.228 1037.2C784.438 1037.19 804.688 1037.46 824.892 1037.12C823.646 1077.04 825.438 1117.07 824.652 1157L453.305 1157C451.811 1138.34 452.933 1118.8 452.93 1100.04C452.926 1079.28 451.908 1057.89 453.158 1037.2L513.858 1037.14C512.776 1056.29 512.985 1077.24 513.745 1096.41L764.318 1096.42C763.84 1084.96 764.026 1073.46 764.028 1061.99C764.029 1053.78 763.702 1045.39 764.228 1037.2Z"></path></svg>